<svg width="36" height="36" viewBox="0 0 36 36" fill="none" xmlns="http://www.w3.org/2000/svg">
<path d="M21.2084 4.69287C19.4196 4.69287 17.704 5.40348 16.4391 6.66838C15.1742 7.93327 14.4636 9.64883 14.4636 11.4377V15.1929H10.8542C10.673 15.1929 10.5261 15.3398 10.5261 15.521V20.4793C10.5261 20.6605 10.673 20.8075 10.8542 20.8075H14.4636V30.9793C14.4636 31.1605 14.6105 31.3075 14.7917 31.3075H19.7501C19.9313 31.3075 20.0782 31.1605 20.0782 30.9793V20.8075H23.7196C23.8701 20.8075 24.0014 20.705 24.0379 20.5589L25.2775 15.6006C25.3292 15.3935 25.1726 15.1929 24.9591 15.1929H20.0782V11.4377C20.0782 11.1379 20.1973 10.8504 20.4092 10.6385C20.6212 10.4265 20.9087 10.3075 21.2084 10.3075H25.0001C25.1813 10.3075 25.3282 10.1605 25.3282 9.97933V5.021C25.3282 4.83978 25.1813 4.69287 25.0001 4.69287H21.2084Z" fill="correct"/>
</svg>
