<svg width="36" height="36" viewBox="0 0 36 36" fill="none" xmlns="http://www.w3.org/2000/svg">
<path d="M18.0001 13.2604C15.3825 13.2604 13.2605 15.3824 13.2605 18C13.2605 20.6176 15.3825 22.7395 18.0001 22.7395C20.6177 22.7395 22.7397 20.6176 22.7397 18C22.7397 15.3824 20.6177 13.2604 18.0001 13.2604Z" fill="correct"/>
<path fill-rule="evenodd" clip-rule="evenodd" d="M10.3723 4.99377C15.4008 4.43176 20.5994 4.43176 25.6279 4.99377C28.3964 5.30319 30.6294 7.48454 30.9543 10.2627C31.5555 15.4034 31.5555 20.5966 30.9543 25.7372C30.6294 28.5154 28.3964 30.6967 25.6279 31.0062C20.5994 31.5682 15.4008 31.5682 10.3723 31.0062C7.60383 30.6967 5.37084 28.5154 5.0459 25.7372C4.44466 20.5966 4.44466 15.4034 5.0459 10.2627C5.37084 7.48454 7.60383 5.30319 10.3723 4.99377ZM25.2918 9.24997C24.4863 9.24997 23.8334 9.90288 23.8334 10.7083C23.8334 11.5137 24.4863 12.1666 25.2918 12.1666C26.0972 12.1666 26.7501 11.5137 26.7501 10.7083C26.7501 9.90288 26.0972 9.24997 25.2918 9.24997ZM11.073 18C11.073 14.1742 14.1744 11.0729 18.0001 11.0729C21.8258 11.0729 24.9272 14.1742 24.9272 18C24.9272 21.8257 21.8258 24.927 18.0001 24.927C14.1744 24.927 11.073 21.8257 11.073 18Z" fill="correct"/>
</svg>
