<svg width="36" height="36" viewBox="0 0 36 36" fill="none" xmlns="http://www.w3.org/2000/svg">
<path fill-rule="evenodd" clip-rule="evenodd" d="M27.4545 29.3605L27.4555 29.3581L27.4809 29.2946L31.8541 7.24598V7.17436C31.8541 6.62501 31.6512 6.14542 31.2095 5.85775C30.8228 5.60595 30.3784 5.58802 30.0668 5.61167C29.7372 5.63669 29.4263 5.71896 29.2112 5.78745C29.1005 5.82268 29.0079 5.85663 28.9416 5.8823C28.9083 5.89519 28.8814 5.90613 28.8618 5.91427L28.8425 5.92238L4.45947 15.4875L4.45276 15.4899C4.43959 15.4947 4.42218 15.5012 4.40114 15.5094C4.35921 15.5257 4.30213 15.5491 4.23508 15.5794C4.10342 15.6391 3.92151 15.7312 3.73703 15.8575C3.4237 16.0721 2.82708 16.5801 2.92782 17.3854C3.01127 18.0525 3.47108 18.4761 3.78108 18.6954C3.94726 18.813 4.10623 18.8978 4.22265 18.9532C4.28164 18.9813 4.33174 19.0028 4.36905 19.018C4.38776 19.0256 4.40341 19.0317 4.41551 19.0363L4.431 19.0421L4.44091 19.0458L8.70689 20.4819C8.69249 20.7496 8.71903 21.0225 8.79001 21.2918L10.9269 29.3978C11.1803 30.3589 12.0497 31.0284 13.0437 31.0277C13.9346 31.027 14.7248 30.488 15.0605 29.6839L18.3967 26.1167L24.1265 30.5095L24.2079 30.5451C24.7285 30.7723 25.2149 30.8442 25.6596 30.7835C26.1036 30.7228 26.4565 30.5366 26.7215 30.3245C26.9824 30.1159 27.1612 29.8803 27.2736 29.703C27.3307 29.6129 27.3733 29.5337 27.4028 29.4741C27.4176 29.4442 27.4293 29.4189 27.4381 29.3992L27.4491 29.3738L27.453 29.3644L27.4545 29.3605ZM10.9052 20.7341C10.8566 20.5499 10.9329 20.3554 11.0937 20.2533L25.5633 11.0645C25.5633 11.0645 26.4144 10.5478 26.3839 11.0645C26.3839 11.0645 26.5358 11.1557 26.0798 11.5811C25.6472 11.9852 15.7669 21.5243 14.7672 22.4895C14.7095 22.5452 14.675 22.6091 14.6547 22.6867L13.0421 28.8402L10.9052 20.7341Z" fill="correct"/>
</svg>
