<svg width="36" height="36" viewBox="0 0 36 36" fill="none" xmlns="http://www.w3.org/2000/svg">
<path d="M34.0417 14.6603C34.1139 12.573 33.6574 10.5012 32.7147 8.63742C32.075 7.87266 31.1874 7.35658 30.2063 7.17908C26.1486 6.81089 22.074 6.65998 18.0001 6.727C13.941 6.65694 9.88111 6.80298 5.83758 7.1645C5.03815 7.30992 4.29834 7.68489 3.70841 8.24367C2.39591 9.45408 2.25008 11.5249 2.10425 13.2749C1.89266 16.4214 1.89266 19.5785 2.10425 22.7249C2.14644 23.7099 2.29309 24.6876 2.54175 25.6416C2.71759 26.3781 3.07334 27.0596 3.57716 27.6249C4.1711 28.2133 4.92814 28.6096 5.75008 28.7624C8.89412 29.1505 12.0621 29.3113 15.2292 29.2437C20.3334 29.3166 24.8105 29.2437 30.1042 28.8353C30.9464 28.6919 31.7247 28.2951 32.3355 27.6978C32.7438 27.2894 33.0487 26.7894 33.2251 26.2395C33.7466 24.6391 34.0028 22.9642 33.9834 21.2812C34.0417 20.4645 34.0417 15.5353 34.0417 14.6603ZM14.7042 22.1562V13.1291L23.3376 17.6645C20.9167 19.0062 17.723 20.5228 14.7042 22.1562Z" fill="correct"/>
</svg>
