<svg width="17" height="20" viewBox="0 0 17 20" fill="none" xmlns="http://www.w3.org/2000/svg">
<path fill-rule="evenodd" clip-rule="evenodd" d="M3.75002 5.63012V6H2.24889C1.80168 6 1.42213 6.32799 1.3573 6.77047L1.13863 8.26292C0.711604 11.1773 0.711604 14.1384 1.13863 17.0529C1.32996 18.3588 2.38301 19.3683 3.6958 19.5045L4.32467 19.5697C7.10079 19.8576 9.89923 19.8576 12.6754 19.5697L13.3042 19.5045C14.617 19.3683 15.6701 18.3588 15.8614 17.0529C16.2884 14.1384 16.2884 11.1773 15.8614 8.26292L15.6427 6.77047C15.5779 6.32799 15.1983 6 14.7511 6H13.25V5.63013C13.25 3.46238 11.7824 1.56964 9.68296 1.02979C8.90695 0.830241 8.09308 0.830241 7.31707 1.02979C5.21763 1.56964 3.75002 3.46238 3.75002 5.63012ZM9.3094 2.48252C8.77845 2.34599 8.22158 2.34599 7.69063 2.48252C6.25417 2.8519 5.25002 4.14693 5.25002 5.63012V6H11.75V5.63013C11.75 4.14693 10.7459 2.8519 9.3094 2.48252ZM5.25002 7.5C5.25002 7.08579 4.91423 6.75 4.50002 6.75C4.0858 6.75 3.75002 7.08579 3.75002 7.5V9.5C3.75002 9.91421 4.0858 10.25 4.50002 10.25C4.91423 10.25 5.25002 9.91421 5.25002 9.5V7.5ZM13.25 7.5C13.25 7.08579 12.9142 6.75 12.5 6.75C12.0858 6.75 11.75 7.08579 11.75 7.5V9.5C11.75 9.91421 12.0858 10.25 12.5 10.25C12.9142 10.25 13.25 9.91421 13.25 9.5V7.5Z" fill="current"/>
</svg>
