<svg width="81" height="81" viewBox="0 0 81 81" fill="none" xmlns="http://www.w3.org/2000/svg">
<path d="M38.0062 0.0534668C39.6723 0.0534668 41.3405 0.0534668 43.0066 0.0534668C43.2342 0.0973116 43.4597 0.164123 43.6893 0.180825C47.0549 0.427191 50.3266 1.11618 53.5189 2.21021C57.2875 3.5005 60.7721 5.33572 64.05 7.69707C65.0897 6.65315 66.1128 5.61966 67.1442 4.59244C68.7456 2.99942 70.6184 3.00151 72.2343 4.6008C73.4745 5.82845 74.7064 7.06445 75.9361 8.30255C77.5959 9.97491 77.5834 11.8227 75.9048 13.5075C74.9005 14.516 73.89 15.5181 72.892 16.512C82.3353 29.4378 83.4816 48.2034 73.5476 62.6972C73.9798 62.9812 74.4287 63.2442 74.8421 63.5511C78.2578 66.0858 80.5168 69.3324 80.4855 73.7169C80.4584 77.5877 77.454 80.2268 73.6374 80.0096C70.4659 79.8301 67.7476 78.544 65.5679 76.2264C64.6659 75.2681 63.8892 74.1908 63.0332 73.1406C62.6115 73.4141 62.1396 73.7356 61.6552 74.0342C47.2136 82.9201 29.183 81.991 15.8709 71.5497C7.84518 65.2548 2.92204 57.0183 1.11187 46.9611C0.846717 45.5038 0.69848 44.0277 0.498047 42.562C0.498047 40.8959 0.498047 39.2277 0.498047 37.5616C0.543979 37.3361 0.598263 37.1106 0.631669 36.8831C0.898913 35.0833 1.06803 33.2648 1.43967 31.4881C4.69879 15.8689 17.8105 3.29589 33.5361 0.671469C35.0185 0.425103 36.5155 0.258076 38.0062 0.0534668ZM62.1793 9.46339C62.0331 9.35273 61.9141 9.2546 61.7847 9.169C52.8925 3.16853 43.1486 1.18717 32.6822 3.3982C11.9353 7.78267 -0.934216 28.4315 4.09749 49.0448C10.2399 74.2138 39.8686 85.6948 61.3713 71.2469C61.9621 70.8502 62.1751 70.5099 61.9747 69.7499C61.4068 67.5974 61.7889 65.5722 63.1167 63.7537C63.1961 63.6451 63.242 63.5135 63.3986 63.2066C50.2973 75.9258 30.7175 74.9925 18.8398 64.2652C7.02465 53.5942 4.57561 36.2003 13.1003 22.6753C17.2822 16.038 23.1721 11.4802 30.6549 9.13351C40.5722 6.02471 49.9153 7.53213 58.6299 13.0211C59.8221 11.8247 60.9788 10.666 62.1793 9.46339ZM10.5239 40.0858C10.5385 56.5986 24.0176 70.0736 40.5116 70.0631C57.1309 70.0527 70.516 56.6195 70.5119 39.9585C70.5098 23.4791 56.9972 10.0375 40.4636 10.0668C23.9466 10.0918 10.5072 23.5668 10.5239 40.0858ZM67.6682 21.907C75.9257 36.3528 74.7231 49.9426 64.0897 62.6638C66.5283 61.3192 68.0127 61.0123 70.3219 61.5531C70.9879 61.7096 71.2948 61.5155 71.633 60.9873C78.4958 50.2975 79.8466 38.9542 75.648 26.97C74.5686 23.8904 73.0131 21.0405 71.1424 18.4307C69.9482 19.627 68.7769 20.7983 67.6682 21.907ZM66.2965 19.5581C68.8124 17.0464 71.5579 14.3093 74.3013 11.5659C74.7857 11.0815 74.7147 10.6075 74.247 10.1419C72.9922 8.89341 71.7479 7.63235 70.491 6.3859C69.8625 5.76373 69.5034 5.77417 68.8479 6.42557C67.3885 7.87663 65.9374 9.33185 64.4822 10.7871C63.2357 12.0314 61.9914 13.2758 60.9976 14.2696C62.7868 16.0547 64.5114 17.7751 66.2965 19.5581ZM66.7287 64.1002C70.3803 67.7456 74.0591 71.4223 77.8235 75.1804C77.8778 74.3683 78.0761 73.5081 77.9676 72.6896C77.4206 68.5954 73.8608 64.8414 69.8166 64.0125C68.7205 63.7871 67.616 63.6326 66.7287 64.1002ZM64.4571 65.9542C64.3945 66.9919 64.192 67.8792 64.3131 68.7206C64.883 72.7189 68.3823 76.4436 72.3408 77.3518C73.4745 77.6107 74.6124 77.69 75.6563 77.1722C71.9671 73.4768 68.3196 69.823 64.4571 65.9542Z" fill="black"/>
<path d="M68.0128 40.0817C68.0107 55.2373 55.6986 67.5431 40.5242 67.5598C25.3476 67.5765 12.9918 55.2144 13.0043 40.0295C13.0168 24.8007 25.356 12.5388 40.6515 12.5555C55.7216 12.5722 68.0148 24.9406 68.0128 40.0817ZM65.5115 40.1192C65.5199 26.2664 54.3374 15.0609 40.5054 15.063C26.7674 15.0651 15.5368 26.2747 15.5222 40.0023C15.5055 53.7925 26.7026 65.0398 40.4657 65.0606C54.2601 65.0815 65.5032 53.8865 65.5115 40.1192Z" fill="black"/>
<path d="M40.4991 29.513C41.9794 28.1496 43.6476 27.1871 45.5893 26.7257C48.8526 25.9532 51.7254 26.6756 54.187 28.9555C58.323 32.7846 59.1081 37.6639 56.4189 42.9566C54.3958 46.936 51.3914 50.1033 47.8963 52.7904C45.798 54.4022 43.516 55.776 41.3154 57.2521C40.7997 57.5966 40.2694 57.6738 39.7057 57.3377C34.5633 54.2748 29.8866 50.6712 26.3581 45.7543C24.7818 43.5579 23.5708 41.1861 23.1428 38.4719C22.5311 34.5885 24.122 31.5361 26.8696 29.0265C30.4691 25.7361 35.7722 25.7423 39.7412 28.9012C39.9813 29.0933 40.2193 29.2875 40.4991 29.513ZM25.5021 37.4384C25.5752 39.6432 26.7026 41.9377 28.2017 44.0694C31.2812 48.4497 35.3839 51.6963 39.8644 54.5233C40.3091 54.8051 40.6369 54.8281 41.0482 54.5254C43.3761 52.8238 45.8085 51.2475 48.0195 49.406C50.8172 47.078 53.166 44.3242 54.6317 40.9231C56.2581 37.1461 55.7424 33.864 52.3476 30.6926C50.2159 28.7008 47.6625 28.3229 45.0443 29.5673C43.7812 30.1686 42.6809 31.1394 41.5764 32.0288C40.7684 32.6781 40.2172 32.7491 39.4719 32.0372C39.3215 31.8931 39.1817 31.7386 39.0292 31.5966C37.2567 29.9639 35.173 28.9346 32.7594 29.0536C28.9637 29.2436 25.5 33.1291 25.5021 37.4384Z" fill="black"/>
</svg>
