<svg width="81" height="79" viewBox="0 0 81 79" fill="none" xmlns="http://www.w3.org/2000/svg">
<path d="M32.7492 22.3886C34.0812 20.0966 35.2684 17.7667 36.7184 15.6151C40.8658 9.4697 46.2093 4.68749 53.181 1.92999C58.1013 -0.0167541 63.1508 -0.598103 68.2271 1.2484C74.2945 3.45352 77.8828 7.97958 79.54 14.0759C81.2929 20.5265 80.5267 26.8723 78.2035 33.031C74.8491 41.9206 69.2606 49.0282 60.9435 53.8015C56.6758 56.2494 52.0874 57.6214 47.1025 57.314C46.5122 57.2784 46.4343 57.5323 46.3585 58.0157C45.5678 63.1476 43.8661 67.912 40.5495 71.9881C37.1817 76.1266 32.9029 78.6257 27.5059 78.9465C22.9754 79.216 18.9104 77.7905 15.2174 75.2601C9.79592 71.5471 6.12518 66.4241 3.68841 60.4101C0.260458 51.9483 -0.572586 43.2726 2.0201 34.4165C3.41444 29.6565 5.80221 25.4802 9.68455 22.2794C15.449 17.5284 23.1714 16.9693 30.1186 20.7871C31.0408 21.2927 31.9184 21.8785 32.7492 22.3886ZM14.5135 22.5779C14.4133 22.5489 14.3131 22.52 14.2128 22.491C13.9255 22.6469 13.6337 22.794 13.3553 22.9632C9.32148 25.4045 6.81344 29.0574 5.19858 33.3763C2.85537 39.6419 2.66827 46.0702 4.04479 52.5563C5.52378 59.5303 8.5263 65.7225 13.7763 70.6717C17.2265 73.9237 21.2224 76.0575 26.0648 76.3137C27.869 76.4095 27.8846 76.4206 28.1318 74.6944C28.7466 70.3688 28.6419 66.0632 27.7732 61.7733C26.6662 56.2961 24.2784 51.4181 21.1222 46.8364C17.2354 41.1944 15.0526 34.8931 14.5336 28.055C14.3955 26.2397 14.5135 24.4044 14.5135 22.5779ZM46.9087 54.63C47.4544 54.6568 47.7284 54.6813 48.0023 54.6835C52.1364 54.7214 55.963 53.5743 59.5157 51.5429C67.5121 46.9745 72.7977 40.1342 75.8915 31.5565C77.8249 26.1996 78.4263 20.7024 77.0497 15.0983C76.4417 12.6281 75.4015 10.3517 73.7755 8.35378C73.6507 8.43174 73.575 8.46292 73.5171 8.51638C67.1668 14.3722 63.0951 21.4932 61.5493 30.0241C59.8699 39.29 55.5087 47.0547 48.4634 53.3092C48.0157 53.7101 47.548 54.0888 46.9087 54.63ZM36.2128 72.4648C36.2952 72.516 36.3798 72.565 36.4622 72.6162C36.9033 72.1195 37.3398 71.6183 37.7853 71.1261C40.1419 68.5245 41.7835 65.5019 42.6922 62.143C45.7505 50.839 43.7748 40.3569 37.1817 30.7591C34.442 26.7698 30.867 23.6738 26.2497 21.972C24.9956 21.5087 23.6614 21.2593 22.2782 20.8873C22.1223 24.3821 22.3183 27.6385 22.9665 30.866C24.0334 36.1694 26.2452 40.9583 29.3168 45.3997C34.1302 52.3648 36.4734 60.1139 36.3798 68.5869C36.3642 69.8832 36.2685 71.1729 36.2128 72.4648ZM45.9977 44.6914C46.236 44.3573 46.3385 44.1969 46.4588 44.0499C50.3901 39.261 53.1187 33.8552 54.19 27.7543C55.8116 18.5263 59.8253 10.6369 66.6634 4.20861C66.8104 4.07051 66.9285 3.89677 67.1156 3.6718C66.6812 3.54262 66.3427 3.42679 65.9974 3.34215C61.4157 2.22177 57.0456 3.02141 52.8736 4.97483C44.5031 8.89949 38.9235 15.4814 35.226 23.8119C35.0367 24.2395 35.2038 24.4378 35.4688 24.7251C36.6182 25.968 37.8187 27.173 38.85 28.5094C42.494 33.2337 44.7103 38.6084 45.9977 44.6914ZM17.0773 21.3729C16.9548 24.7518 17.0127 28.0417 17.6118 31.3115C18.6542 37.0069 21.042 42.0921 24.2985 46.8587C29.4727 54.4296 31.6889 62.858 31.0719 72.0148C30.9895 73.2221 30.8514 74.4271 30.7312 75.7234C31.3526 75.4807 31.8827 75.2379 32.4373 75.0686C33.0254 74.8904 33.257 74.5229 33.3016 73.9282C33.4174 72.3779 33.6535 70.8343 33.7003 69.2818C33.9408 61.0561 31.7379 53.523 27.027 46.774C21.8283 39.3279 19.3514 31.091 19.5653 22.0255C19.5719 21.7025 19.5653 21.3773 19.5653 20.9452C18.6698 21.1011 17.8903 21.2348 17.0773 21.3729ZM69.7172 4.79218C68.7572 5.79896 67.8373 6.7612 66.9196 7.7212C61.8634 13.0179 58.5268 19.2324 57.2237 26.4446C55.7693 34.4922 52.4727 41.5931 46.8976 47.6071C46.7261 47.792 46.5545 48.0771 46.5612 48.3109C46.5924 49.2375 46.6949 50.1619 46.7706 51.1019C46.8931 51.064 46.951 51.0618 46.9911 51.0328C47.1003 50.9482 47.2049 50.8568 47.3074 50.7633C53.2724 45.2683 57.1881 38.5683 58.6871 30.601C60.0124 23.5646 62.5517 17.1252 67.0733 11.5434C68.5344 9.73922 70.1849 8.08649 71.8109 6.29344C71.185 5.84351 70.519 5.36685 69.7172 4.79218Z" fill="black"/>
<path d="M24.0201 71.8344C24.0602 73.0595 22.9822 73.8123 22.109 73.2599C20.3115 72.124 18.5764 70.8811 16.8702 69.6092C16.2866 69.1749 16.329 68.4777 16.7522 67.8875C17.1665 67.3084 17.9104 67.1858 18.5318 67.6068C20.1779 68.7272 21.8217 69.8565 23.4343 71.0259C23.7373 71.2464 23.9021 71.6651 24.0201 71.8344Z" fill="black"/>
<path d="M16.0169 65.7269C15.8009 65.9919 15.5714 66.5377 15.1928 66.6713C14.7807 66.8183 14.0746 66.7537 13.7762 66.4797C13.0924 65.8516 12.5311 65.0698 12.0121 64.288C11.6356 63.7222 11.7515 63.103 12.2838 62.6442C12.785 62.2143 13.4376 62.1296 13.8764 62.5796C14.607 63.3235 15.2062 64.1989 15.841 65.0319C15.939 65.1522 15.9301 65.3505 16.0169 65.7269Z" fill="black"/>
<path d="M40.2599 25.1283C39.0905 25.1238 38.3444 24.1304 38.8099 23.3196C39.8813 21.4531 41.0551 19.6444 42.2601 17.8603C42.6744 17.2455 43.4785 17.25 44.0398 17.6865C44.5922 18.1187 44.7236 18.8359 44.3249 19.4707C43.2825 21.1323 42.249 22.8006 41.1576 24.4289C40.9237 24.7808 40.4604 24.979 40.2599 25.1283Z" fill="black"/>
<path d="M49.3878 13.8666C49.4079 14.7999 46.9221 16.9448 46.0178 16.7733C44.9887 16.5795 44.5299 15.3589 45.2627 14.5927C45.8908 13.9334 46.6014 13.3342 47.3475 12.8108C48.2229 12.1983 49.3656 12.8264 49.3878 13.8666Z" fill="black"/>
</svg>
