<svg width="80" height="81" viewBox="0 0 80 81" fill="none" xmlns="http://www.w3.org/2000/svg">
<path d="M31.925 59.9694C30.9128 58.8063 29.7559 57.7521 28.9575 56.4758C28.1946 55.2562 27.5261 54.5646 25.8978 54.5227C23.3766 54.4577 21.5534 52.186 21.5073 49.6502C21.4947 48.9188 21.4926 48.1853 21.5073 47.4539C21.5408 45.7899 22.7249 44.6226 24.4014 44.5912C24.6634 44.587 24.9254 44.5765 25.1852 44.5933C26.078 44.6499 26.8387 44.6645 27.2851 43.5685C27.6204 42.7428 28.5404 42.4054 29.4562 42.4033C36.5166 42.3928 43.5749 42.3865 50.6353 42.4054C51.9786 42.4096 53.2277 43.4113 53.2801 44.7379C53.3953 47.653 53.6342 50.5953 52.6346 53.4413C51.725 56.0316 50.168 58.1461 48.0031 59.8164C48.045 59.8751 48.0723 59.9463 48.0974 59.9463C50.476 59.9568 52.8546 59.9924 55.2332 59.9526C56.4865 59.9316 57.4798 58.8817 57.5762 57.6306C57.5951 57.3959 57.5846 57.159 57.5846 56.9243C57.5846 43.5853 57.5846 30.2441 57.5846 16.905C57.5846 14.7213 56.6835 13.8307 54.4767 13.8307C52.4124 13.8307 50.3503 13.8307 48.2294 13.8307C48.2294 14.8177 48.2294 15.7671 48.2294 16.7227C48.2693 16.7479 48.3112 16.7919 48.3552 16.794C50.8281 16.9176 51.6245 17.7622 51.6245 20.2623C51.6245 22.3811 51.6307 24.4998 51.6224 26.6186C51.6077 30.4369 48.9189 33.1131 45.0901 33.1362C44.8093 33.1382 44.5285 33.1362 44.1722 33.1362C44.1722 33.8466 44.1827 34.469 44.1701 35.0893C44.1324 37.0383 43.0133 38.1469 41.0789 38.1574C40.2952 38.1616 39.5093 38.17 38.7255 38.1553C37.1139 38.1218 35.9676 37.0299 35.8753 35.4142C35.8334 34.6891 35.8691 33.9577 35.8691 33.1382C33.9222 33.2388 32.1513 32.9329 30.6697 31.6755C29.2131 30.439 28.488 28.8421 28.3895 26.9224C26.0528 26.9224 23.7245 26.7841 21.4172 26.9518C16.4651 27.308 11.5255 27.8215 6.57969 28.2679C5.7477 28.3433 4.91362 28.425 4.07954 28.4753C1.79523 28.6136 0.0432367 26.979 0.0118013 24.6821C-0.00286851 23.6091 -0.00496419 22.5361 0.0118013 21.4653C0.0516194 19.2082 1.80362 17.5295 4.04181 17.7119C8.65233 18.0849 13.2545 18.5711 17.865 18.9169C21.3501 19.1789 24.8457 19.2962 28.3288 19.4785C28.7542 17.4352 29.955 16.6787 31.8118 16.8002C31.8118 15.8216 31.8118 14.889 31.8118 13.8265C30.961 13.8265 30.085 13.8265 29.209 13.8265C28.6599 13.8265 28.1108 13.8453 27.5617 13.816C26.3148 13.7531 25.114 12.8645 24.984 11.6763C24.6613 8.74022 24.7661 5.85865 26.7444 3.39831C28.4461 1.28376 30.6571 0.0514909 33.371 0.0389167C44.0905 -0.00718844 54.8099 -0.0176669 65.5315 0.036821C70.142 0.0598736 73.6376 3.6938 74.0567 8.52856C74.6288 15.1174 75.2827 21.7 75.8946 28.2846C76.494 34.7142 77.0808 41.1438 77.6823 47.5734C78.2837 54.0029 78.9187 60.4283 79.495 66.86C79.7298 69.488 79.933 72.1223 79.998 74.7586C80.0755 77.9001 77.8855 80.0503 74.763 80.0503C54.6821 80.0545 34.6033 80.0545 14.5224 80.0503C11.601 80.0503 9.35648 77.9755 9.27056 75.2281C9.21607 73.4845 10.2241 71.9818 11.8818 71.4579C12.3345 71.3154 12.4958 71.1163 12.5587 70.6637C13.3907 64.6826 18.6299 60.0532 24.6571 59.9715C26.9058 59.9421 29.1545 59.9652 31.4031 59.9631C31.6022 59.9694 31.7992 59.9694 31.925 59.9694ZM77.3679 71.2358C77.347 70.9005 77.3386 70.6385 77.3155 70.3786C76.7623 64.5233 76.1985 58.6679 75.6515 52.8126C74.9977 45.8109 74.3585 38.8092 73.7067 31.8075C72.9858 24.0765 72.246 16.3497 71.5419 8.61658C71.2213 5.09791 68.7211 2.54746 65.3575 2.53698C54.7701 2.50974 44.1806 2.51393 33.5931 2.53488C30.6403 2.54117 28.1234 4.60962 27.5471 7.49957C27.3647 8.4112 27.4674 9.37522 27.3815 10.3099C27.3103 11.0916 27.568 11.3347 28.3791 11.3305C37.0846 11.3012 45.7901 11.3116 54.4977 11.3116C58.0729 11.3116 60.0994 13.3277 60.0994 16.8862C60.0994 30.2252 60.0994 43.5643 60.0994 56.9034C60.0994 60.4535 58.0645 62.4758 54.4935 62.4758C44.715 62.4758 34.9386 62.4674 25.1601 62.48C21.5597 62.4842 18.697 63.97 16.6369 66.9312C15.7483 68.2075 15.1867 69.6221 15.0421 71.2316C35.823 71.2358 56.5472 71.2358 77.3679 71.2358ZM40.073 44.9014C36.7283 44.9014 33.3836 44.9139 30.0409 44.8888C29.4143 44.8846 29.1482 45.0334 29.1775 45.7145C29.2278 46.8881 29.1817 48.0658 29.1943 49.2415C29.2467 54.7825 33.4213 59.3197 39.0189 59.9274C44.2728 60.4996 49.4072 56.8719 50.4991 51.595C50.891 49.7047 50.7212 47.6991 50.8532 45.7501C50.9014 45.0292 50.6143 44.8783 49.9521 44.8825C46.6577 44.9181 43.3653 44.9014 40.073 44.9014ZM77.5586 73.78C77.1248 73.78 76.8398 73.78 76.5569 73.78C55.5979 73.78 34.641 73.78 13.682 73.78C13.5248 73.78 13.3676 73.7758 13.2126 73.78C12.1417 73.8114 11.5947 74.5155 11.8294 75.555C12.1207 76.8376 13.1434 77.5459 14.7152 77.5459C34.6536 77.5459 54.592 77.5459 74.5324 77.5459C74.742 77.5459 74.9516 77.5543 75.1591 77.5375C76.2153 77.46 77.1269 76.7705 77.3784 75.7352C77.523 75.1442 77.4978 74.5072 77.5586 73.78ZM30.9505 19.3465C30.9505 22.0751 30.8499 24.7387 30.9861 27.3919C31.0783 29.1774 32.7025 30.5815 34.4838 30.6025C38.168 30.6465 41.8523 30.6507 45.5344 30.6025C47.4687 30.5773 49.0614 28.9552 49.0992 27.0167C49.1474 24.5878 49.1138 22.1547 49.1096 19.7258C49.1096 19.6064 49.0572 19.4848 49.0258 19.3486C43.0091 19.3465 37.0301 19.3465 30.9505 19.3465ZM20.8241 24.4537C20.8241 23.5023 20.8241 22.6284 20.8241 21.7167C19.793 21.6245 18.808 21.5386 17.8252 21.4506C13.2503 21.0398 8.67748 20.6228 4.10049 20.2225C3.04007 20.1303 2.53501 20.6081 2.52244 21.6601C2.51196 22.5739 2.51615 23.4876 2.52034 24.4034C2.52663 25.577 3.00235 26.0339 4.15498 25.9416C6.10607 25.7845 8.05506 25.6084 10.0041 25.4345C13.5898 25.1138 17.1734 24.7848 20.8241 24.4537ZM34.4042 16.7541C38.1827 16.7541 41.9005 16.7541 45.5993 16.7541C45.5993 15.9054 45.5993 15.1132 45.5993 14.3357C41.8376 14.3357 38.1387 14.3357 34.4042 14.3357C34.4042 15.1509 34.4042 15.9242 34.4042 16.7541ZM23.4207 24.2881C25.1119 24.2881 26.7381 24.2881 28.3434 24.2881C28.3434 23.4394 28.3434 22.6472 28.3434 21.8739C26.6711 21.8739 25.0637 21.8739 23.4207 21.8739C23.4207 22.6849 23.4207 23.4583 23.4207 24.2881ZM26.5998 47.1123C25.8936 47.1123 25.1224 47.0892 24.3553 47.1354C24.2317 47.1437 24.0389 47.4581 24.0284 47.6383C23.9907 48.3152 23.9907 48.9963 24.0179 49.6732C24.0808 51.2345 25.3592 52.2656 26.8827 52.056C26.7926 50.4465 26.7004 48.8391 26.5998 47.1123ZM38.3734 33.176C38.3734 33.8613 38.3462 34.49 38.3902 35.1124C38.4027 35.2926 38.6123 35.6091 38.7339 35.6112C39.6644 35.6195 40.5948 35.563 41.5253 35.5294C41.5568 34.7834 41.5903 34.0373 41.6196 33.2891C41.6196 33.2682 41.5987 33.2451 41.5651 33.176C40.555 33.176 39.5218 33.176 38.3734 33.176Z" fill="black"/>
<path d="M53.0349 5.66587C56.7736 5.66587 60.5123 5.66587 64.251 5.66587C64.4857 5.66587 64.7267 5.64282 64.9552 5.68473C65.6321 5.81047 66.0386 6.22752 66.0386 6.92119C66.0386 7.61486 65.63 8.02981 64.9552 8.15765C64.7267 8.19956 64.4857 8.17651 64.251 8.17651C56.7736 8.17651 49.2962 8.17651 41.8188 8.17651C41.584 8.17651 41.343 8.19956 41.1146 8.15765C40.4398 8.02981 40.0311 7.61696 40.0311 6.92119C40.0311 6.22752 40.4398 5.81047 41.1146 5.68683C41.343 5.64491 41.584 5.66797 41.8188 5.66797C45.5575 5.66587 49.2962 5.66587 53.0349 5.66587Z" fill="black"/>
<path d="M72.487 54.7155C72.485 56.9034 70.6868 58.7057 68.5031 58.712C66.2859 58.7183 64.471 56.8908 64.4899 54.6673C64.5088 52.4836 66.3215 50.7001 68.5115 50.7127C70.6994 50.7232 72.4891 52.5276 72.487 54.7155ZM68.478 56.1971C69.289 56.2034 69.9785 55.5118 69.9743 54.7008C69.9701 53.917 69.3226 53.2527 68.5367 53.2254C67.7214 53.1961 67.0194 53.8604 67.0026 54.6799C66.9859 55.493 67.6649 56.1929 68.478 56.1971Z" fill="black"/>
<path d="M72.487 64.8775C72.5038 67.0675 70.7266 68.8865 68.5429 68.9138C66.3215 68.941 64.4878 67.1282 64.4899 64.9089C64.492 62.721 66.2859 60.9208 68.4717 60.9124C70.6617 60.9061 72.4703 62.6917 72.487 64.8775ZM68.4633 63.4273C67.646 63.4419 66.9775 64.1398 67.0026 64.9571C67.0277 65.743 67.6879 66.3927 68.4717 66.401C69.2827 66.4094 69.9764 65.722 69.9722 64.9089C69.9722 64.0937 69.2785 63.4126 68.4633 63.4273Z" fill="black"/>
<path d="M34.1297 8.17438C33.4507 8.17438 32.7696 8.19115 32.0906 8.17019C31.2879 8.14295 30.764 7.6316 30.7661 6.91907C30.7682 6.20444 31.2921 5.6847 32.0948 5.67423C33.4528 5.65327 34.8129 5.65327 36.173 5.67423C36.9756 5.6868 37.4996 6.21072 37.4996 6.92326C37.4996 7.63579 36.9736 8.14504 36.1709 8.17229C35.4898 8.19325 34.8087 8.17438 34.1297 8.17438Z" fill="black"/>
</svg>
