<svg width="100" height="72" viewBox="0 0 100 72" fill="none" xmlns="http://www.w3.org/2000/svg">
<path d="M89.0223 30.7343C89.4379 30.6974 89.8456 30.6566 90.2534 30.6236C91.2708 30.5382 92.2436 30.7265 93.1776 31.1187C93.4999 31.2547 93.863 31.2838 94.1542 31.4838C95.0357 32.0877 95.9522 32.6605 96.593 33.5381C97.5658 34.872 98.2512 36.3147 98.0279 38.0292C97.9017 39.0001 97.6454 39.9418 97.3095 40.866C97.1036 41.433 96.8571 41.9825 96.4842 42.4407C95.8377 43.2349 95.2726 44.0892 94.6144 44.8756C92.9038 46.9163 91.0844 48.858 89.168 50.7026C87.9117 51.9123 86.5447 52.9997 85.1836 54.0909C83.9739 55.0598 82.7448 56.0035 81.4944 56.9219C80.143 57.9141 78.7663 58.8675 77.3256 59.7257C73.7801 61.8402 70.1938 63.8848 66.5045 65.7449C64.4172 66.7973 62.2522 67.6827 60.0678 68.5079C58.3708 69.1487 56.6543 69.7467 54.9068 70.2458C53.4117 70.671 51.8836 70.9001 50.3341 71.0244C49.3167 71.1059 48.3167 71.1021 47.307 70.8962C46.0197 70.6322 44.9828 69.9798 44.1926 68.9642C42.7868 67.1526 42.212 65.0809 42.3926 62.7974C42.4431 62.1606 42.5751 61.5392 42.7538 60.9276C42.7829 60.8286 42.8101 60.7567 42.6528 60.7975C41.6548 61.0635 40.6645 60.9334 39.6859 60.7062C36.653 60.0033 34.0239 58.549 31.7755 56.4054C30.7172 55.3977 29.9677 54.1686 29.2823 52.8929C28.593 51.6133 28.1212 50.2522 27.729 48.8619C27.0144 46.33 26.1018 43.866 24.8475 41.5573C23.3466 38.7923 21.1097 36.837 18.0924 35.7982C15.8419 35.0235 13.5546 34.8507 11.2227 35.2157C9.67125 35.4584 8.19168 35.9322 6.85191 36.7827C5.70631 37.5089 4.87721 38.4913 4.4015 39.7651C4.31412 39.9981 4.22092 40.2272 4.05588 40.4214C3.71996 40.8194 3.24619 40.7767 2.986 40.3262C2.69669 39.8253 2.60543 39.2641 2.48116 38.7127C2.46951 38.6642 2.49281 38.5904 2.42291 38.5768C2.36272 38.5651 2.3336 38.6311 2.30059 38.67C1.98798 39.0447 1.6773 39.4214 1.36275 39.7942C1.30256 39.8661 1.23654 39.9301 1.16858 39.9942C0.958879 40.1923 0.720051 40.3127 0.428797 40.1942C0.135602 40.0738 0.0288091 39.8195 0.00356709 39.5263C-0.0119664 39.3321 0.0268674 39.1399 0.0501677 38.9476C0.246278 37.3438 1.0113 36.0584 2.22292 35.0118C3.63259 33.7925 5.22477 32.8721 6.90434 32.0915C7.78392 31.6838 8.6538 31.2624 9.58581 30.9673C11.5741 30.3382 13.6032 30.012 15.6788 30.212C17.3739 30.3751 19.0341 30.7324 20.6612 31.2877C22.7369 31.9945 24.3912 33.2973 25.9057 34.7963C27.0338 35.9128 28.0261 37.1574 28.9717 38.437C29.7289 39.4603 30.2279 40.6 30.6027 41.8136C31.1929 43.7281 31.8551 45.6232 32.7968 47.394C33.956 49.5726 35.5404 51.4016 37.5326 52.8676C38.4452 53.5395 39.3946 54.1453 40.4296 54.621C41.5635 55.1433 42.7693 55.3219 43.9868 55.452C44.6003 55.518 45.2197 55.5879 45.8411 55.4986C45.8566 55.4967 45.8721 55.4967 45.8877 55.4947C46.2915 55.4404 46.3517 55.318 46.109 54.9724C45.7013 54.3938 45.1809 53.9414 44.5595 53.5977C43.9149 53.2404 43.2178 52.9861 42.5868 52.6036C41.6392 52.0288 40.7635 51.3686 40.1189 50.4502C39.7442 49.9182 39.4937 49.3318 39.418 48.6736C39.3247 47.8581 39.2665 47.027 39.4781 46.2445C39.8102 45.0154 40.2587 43.8213 41.2004 42.8873C41.4703 42.6194 41.7344 42.3534 42.0295 42.1145C42.7247 41.5534 42.6936 40.466 41.9771 39.9321C41.6082 39.6564 41.1965 39.4525 40.7733 39.2797C39.5461 38.7748 38.5092 38.0098 37.6685 36.9827C36.8103 35.9341 36.3307 34.707 35.985 33.4138C35.6957 32.3284 35.6122 31.2314 35.7249 30.1188C35.8161 29.2198 36.0414 28.3499 36.3656 27.5053C36.5734 26.9616 36.7617 26.4102 36.9734 25.8684C37.5733 24.3267 38.5753 23.0627 39.7325 21.9074C41.0936 20.5462 42.6198 19.3948 44.2159 18.3308C45.0683 17.7619 45.9226 17.1968 46.808 16.6803C46.9517 16.5968 46.9342 16.5192 46.8643 16.4027C46.4119 15.6512 45.9556 14.9017 45.5187 14.1425C45.0799 13.3833 44.6605 12.6144 44.2353 11.8475C44.1168 11.6339 44.1013 11.3873 44.0625 11.1543C44.0275 10.9368 44.1809 10.7776 44.3634 10.6689C44.6974 10.4708 45.045 10.2961 45.3984 10.1388C46.7032 9.55627 48.008 8.97959 49.3109 8.3932C49.5944 8.26505 49.8584 8.24369 50.1283 8.41456C50.2448 8.48834 50.3419 8.58348 50.3691 8.71746C50.5128 9.42812 50.8021 10.0922 51.0137 10.7795C51.3089 11.7348 51.6137 12.6882 51.905 13.6455C51.9632 13.8377 52.0273 13.8824 52.2292 13.7989C54.0059 13.0591 55.7728 12.2941 57.6058 11.7018C58.6834 11.3523 59.7863 11.1019 60.8853 10.8261C62.4755 10.4261 64.1027 10.2805 65.724 10.0902C66.7317 9.97179 67.7356 10.0475 68.7142 10.3271C68.8734 10.3718 68.9724 10.364 69.0967 10.2339C70.0578 9.23783 71.1665 8.41456 72.2442 7.55439C73.5354 6.52335 74.947 5.65347 76.2246 4.60496C77.8363 3.28267 79.5799 2.1526 81.3274 1.02836C82.5643 0.232271 83.9312 -0.119175 85.4108 0.0944111C86.5836 0.263338 87.5699 0.814778 88.4631 1.57592C89.6495 2.5856 90.6844 3.73897 91.6727 4.9331C92.7834 6.27675 93.8436 7.65924 94.8299 9.09997C95.7891 10.4999 96.8221 11.8494 97.7852 13.2474C98.6822 14.5503 99.3832 15.9619 99.8511 17.4764C100.061 18.1541 100.01 18.855 99.9327 19.5521C99.7482 21.2064 98.8978 22.5209 97.8085 23.7034C97.3794 24.1694 96.9891 24.684 96.4571 25.0432C95.7348 25.5325 95.1522 26.1849 94.4688 26.7228C93.2785 27.6587 92.0222 28.4955 90.8048 29.3906C90.2359 29.8081 89.6301 30.1731 89.0806 30.6159C89.0592 30.6333 89.0184 30.6489 89.0223 30.7343Z" fill="black"/>
<path d="M21.4147 36.2603C19.9234 35.3361 18.3216 34.6934 16.6109 34.3109C14.9061 33.9284 13.18 33.9012 11.4635 34.1264C9.6519 34.3652 7.91991 34.8914 6.35297 35.8759C5.23067 36.5807 4.34332 37.4991 3.75499 38.6952C3.73169 38.7437 3.7045 38.7923 3.67926 38.8389C3.66761 38.8583 3.65014 38.8738 3.62101 38.9088C3.52975 38.7515 3.53169 38.5806 3.48898 38.4253C3.43655 38.2311 3.40354 38.0311 3.34335 37.8389C3.14724 37.2118 2.54531 37.0409 2.04242 37.4661C1.82883 37.6467 1.64243 37.8564 1.45991 38.0661C1.41719 38.1166 1.39195 38.1923 1.28516 38.204C1.38224 37.8273 1.4968 37.47 1.71233 37.1516C2.21717 36.404 2.85404 35.7846 3.57053 35.2448C4.96466 34.1924 6.5083 33.4002 8.09078 32.674C9.90044 31.843 11.7858 31.3459 13.7741 31.2216C14.8576 31.1537 15.9177 31.2624 16.9857 31.4255C18.4128 31.6449 19.7856 32.0371 21.1215 32.5672C22.1506 32.975 23.001 33.6643 23.867 34.3342C24.935 35.1613 25.8107 36.1729 26.6708 37.204C27.2028 37.8409 27.7446 38.4661 28.2106 39.1534C28.2708 39.2758 28.3659 39.3709 28.4416 39.4816C28.7465 39.9165 28.964 40.3981 29.1892 40.8757C29.5329 41.7573 29.7853 42.6718 30.094 43.565C30.6144 45.062 31.1697 46.5474 31.9231 47.9415C33.3561 50.5881 35.3579 52.7181 37.8783 54.3705C38.9501 55.0734 40.0607 55.6947 41.2976 56.0248C42.8684 56.4442 44.4703 56.6558 46.1013 56.4947C46.3169 56.4733 46.5304 56.4287 46.7421 56.386C47.2333 56.2869 47.5304 55.7879 47.4139 55.2947C47.1557 54.2016 46.4567 53.4676 45.5208 52.9084C44.8994 52.5375 44.2101 52.3065 43.5752 51.9647C42.6432 51.4618 41.7752 50.8813 41.0762 50.0638C40.7287 49.658 40.6199 49.1745 40.5248 48.6852C40.2374 47.2153 40.517 45.8348 41.2413 44.5339C41.3558 44.33 41.484 44.1319 41.6451 43.9669C42.051 43.5533 42.3869 43.0795 42.8043 42.6737C43.8451 41.6641 43.7014 39.969 42.5383 39.1049C41.95 38.668 41.2723 38.3865 40.6413 38.0253C39.9423 37.6253 39.3209 37.1554 38.7462 36.5885C37.7967 35.6506 37.3637 34.4759 37.0123 33.2449C36.7094 32.1808 36.6395 31.0935 36.7657 29.9964C36.8453 29.3091 36.9715 28.6256 37.2472 27.9887C37.4627 27.4916 37.6666 26.9907 37.8724 26.4878C37.9753 26.2373 38.1152 26.0179 38.4511 25.9946C38.7113 25.9771 38.8918 25.7364 39.1637 25.6781C40.3714 25.4218 41.517 24.95 42.7014 24.6063C45.6237 23.7617 48.3634 22.4724 51.0721 21.121C53.0079 20.154 54.938 19.1676 56.7845 18.0337C57.8699 17.3677 58.9068 16.6318 59.9417 15.89C61.0116 15.1211 62.0776 14.3445 63.1125 13.527C63.7707 13.0066 64.3882 12.4397 64.9027 11.7717C64.9784 11.6746 65.0716 11.5698 65.093 11.4552C65.1396 11.2125 65.2988 11.1659 65.5027 11.1407C66.5163 11.0145 67.5259 10.9717 68.5143 11.3018C68.955 11.4494 69.2715 11.2009 69.5958 10.9698C70.4132 10.3912 71.1297 9.68828 71.9103 9.06694C72.6015 8.51745 73.3161 7.99513 74.0384 7.48641C75.4325 6.50391 76.7995 5.48647 78.1353 4.42242C78.8208 3.8768 79.5741 3.42051 80.3023 2.93314C80.8362 2.57393 81.3624 2.19918 81.9158 1.8691C83.4226 0.970092 84.9895 0.74874 86.6166 1.53318C87.2516 1.83997 87.772 2.3118 88.2826 2.78752C89.5622 3.97971 90.6961 5.30006 91.7621 6.68255C92.3427 7.43787 92.9466 8.17571 93.4902 8.95821C93.9718 9.65333 94.4533 10.3465 94.9446 11.0339C95.6009 11.9562 96.2863 12.8571 96.9212 13.793C97.795 15.0823 98.5192 16.4551 98.9095 17.9754C99.0512 18.5249 98.9464 19.0841 98.8862 19.6414C98.7852 20.5637 98.3367 21.3326 97.8144 22.0607C97.1348 23.0122 96.3309 23.8432 95.395 24.5539C94.9892 24.8626 94.6455 25.2548 94.2417 25.5635C93.3174 26.2684 92.4378 27.0276 91.4553 27.6586C90.7524 28.1091 90.1059 28.6508 89.4049 29.1071C88.8263 29.4858 88.3117 29.9459 87.737 30.3304C87.3817 30.5673 87.2846 30.9071 87.3914 31.3187C87.4225 31.4391 87.5059 31.4954 87.603 31.5478C88.1137 31.8216 88.6612 31.8216 89.2146 31.7595C89.9777 31.6721 90.735 31.5886 91.5058 31.7168C92.2262 31.8372 92.8883 32.1148 93.5524 32.4002C94.7387 32.9109 95.5853 33.7808 96.2416 34.874C96.6688 35.5846 96.9464 36.338 97.0319 37.1613C97.061 37.4486 97.028 37.7341 96.9853 38.0176C96.8183 39.1379 96.5406 40.2291 95.9931 41.2252C95.6941 41.7728 95.2863 42.2602 94.9213 42.7708C93.6456 44.5552 92.1388 46.1396 90.6476 47.7396C89.2709 49.2192 87.8088 50.6036 86.2516 51.889C85.0264 52.8987 83.7895 53.8986 82.5236 54.8598C81.2887 55.7996 80.044 56.7257 78.7567 57.5898C77.2674 58.5878 75.7296 59.5121 74.1685 60.3917C72.1724 61.514 70.1919 62.6615 68.1686 63.7333C66.9007 64.4051 65.6173 65.0517 64.3086 65.6439C63.5707 65.9701 62.8135 66.2556 62.0717 66.574C60.7106 67.207 59.3029 67.7099 57.8796 68.1817C57.0486 68.4574 56.2272 68.7642 55.3884 69.0205C53.8351 69.4982 52.2584 69.8322 50.6352 69.9525C49.8779 70.0089 49.1265 70.0865 48.3634 70.0225C46.3615 69.8516 45.0004 68.7992 44.1771 67.0051C43.4975 65.5255 43.2199 63.9818 43.482 62.3605C43.5655 61.846 43.6936 61.3431 43.8742 60.8538C44.0334 60.4208 43.7907 60.1159 43.3461 60.013C42.6354 59.8499 41.9286 60.0169 41.2219 59.9451C40.0141 59.8227 38.8744 59.4597 37.7521 59.0208C35.756 58.2383 33.9871 57.1063 32.4512 55.6112C31.4552 54.6404 30.7561 53.4637 30.1154 52.2443C29.494 51.0618 29.0746 49.8056 28.7115 48.5299C27.9892 45.9843 27.0495 43.5203 25.8262 41.1767C24.8864 39.3787 23.5894 37.8525 21.9506 36.6351C21.9098 36.604 21.8671 36.5749 21.8244 36.5457C21.7059 36.4273 21.5525 36.3555 21.4147 36.2603Z" fill="#FDFDFD"/>
<path d="M52.2934 16.8454C52.4118 16.7833 52.5147 16.6998 52.606 16.6066C52.8157 16.3911 52.8409 16.1736 52.6933 15.9115C52.5264 15.6163 52.5031 15.2746 52.373 14.9659C52.3225 14.8455 52.4545 14.8183 52.5361 14.7833C53.0001 14.5872 53.4622 14.3814 53.9302 14.1989C55.0273 13.7698 56.1107 13.3018 57.2252 12.9116C58.3398 12.5213 59.4795 12.2242 60.6232 11.9446C61.4426 11.7446 62.26 11.5349 63.0969 11.4087C63.3027 11.3776 63.5105 11.3485 63.7163 11.3174C63.7746 11.3097 63.8503 11.2747 63.8852 11.3407C63.9221 11.4106 63.8406 11.4475 63.8018 11.4883C63.2464 12.0863 62.627 12.6145 61.9766 13.1057C60.6698 14.0902 59.3456 15.0513 58.0077 15.993C56.699 16.9134 55.3243 17.725 53.9147 18.4823C51.138 19.9735 48.3265 21.3909 45.4062 22.5831C44.2625 23.0491 43.082 23.4103 41.9131 23.8025C41.082 24.0802 40.251 24.3598 39.4199 24.6355C39.2665 24.686 39.1054 24.717 38.9481 24.7559C38.8899 24.7695 38.818 24.8141 38.7734 24.7578C38.7151 24.684 38.7986 24.6316 38.8355 24.5792C39.2957 23.9151 39.8083 23.2957 40.3811 22.7229C41.8296 21.2744 43.4625 20.0589 45.1712 18.9386C45.8916 18.4667 46.61 17.993 47.3517 17.5561C47.4915 17.4726 47.5576 17.4842 47.6411 17.6279C47.7576 17.8279 47.8935 18.0182 48.043 18.1949C48.2857 18.4842 48.5964 18.5327 48.9478 18.4104C49.6158 18.1794 50.2682 17.9114 50.8992 17.593C51.3866 17.3891 51.8332 17.1056 52.2934 16.8454Z" fill="#FEFEFE"/>
<path d="M62.0737 66.576C62.3203 66.3973 62.6155 66.3216 62.8892 66.2032C63.3009 66.0245 63.7183 65.8595 64.1358 65.6886C64.1921 65.6653 64.2445 65.6246 64.3106 65.6479C63.8329 65.9197 63.3164 66.1042 62.8096 66.3119C62.5689 66.4071 62.3339 66.5294 62.0737 66.576Z" fill="#8B8B8B"/>
<path d="M52.2933 16.8454C51.8622 17.158 51.4079 17.426 50.8972 17.591C51.3632 17.3444 51.8059 17.0532 52.2933 16.8454Z" fill="#7E7E7E"/>
<path d="M29.191 40.8718C28.9425 40.4078 28.692 39.9418 28.4435 39.4777C28.8008 39.8835 29.0202 40.365 29.191 40.8718Z" fill="#7A7A7A"/>
<path d="M21.4147 36.2604C21.5797 36.3167 21.7351 36.3846 21.8263 36.5477C21.6729 36.474 21.5253 36.3944 21.4147 36.2604Z" fill="#7C7C7C"/>
<path d="M28.4436 39.4777C28.3193 39.402 28.2416 39.2933 28.2125 39.1496C28.3135 39.2408 28.4164 39.3321 28.4436 39.4777Z" fill="#7A7A7A"/>
<path d="M81.0197 5.71459L81.0128 5.71889C80.9494 5.75831 80.8868 5.8 80.8166 5.8467L80.8145 5.84811C80.748 5.89232 80.6745 5.94126 80.598 5.98866C79.8343 6.49921 79.0863 7.02552 78.3588 7.57924C77.4706 8.25697 76.6004 8.94872 75.765 9.6768L81.0197 5.71459ZM81.0197 5.71459L81.0265 5.71007M81.0197 5.71459L81.0265 5.71007M81.0265 5.71007C81.1463 5.63007 81.2605 5.55168 81.3707 5.47596C81.8846 5.12309 82.3138 4.82832 82.8366 4.70033L82.8376 4.70009M81.0265 5.71007L82.8376 4.70009M82.8376 4.70009C83.9314 4.43007 84.8969 4.24001 85.8481 4.56706L82.8376 4.70009ZM87.7851 5.8823L87.7849 5.88209C87.2179 5.28767 86.5858 4.82098 85.8483 4.56711L87.7851 5.8823ZM87.7851 5.8823C88.3493 6.47295 88.8611 7.08853 89.2707 7.76333L87.7851 5.8823ZM93.5393 14.3155L93.539 14.3152C93.0961 13.6644 92.6734 13.0025 92.2553 12.3477L92.2533 12.3447C91.8333 11.6869 91.4178 11.0364 90.9838 10.3988C90.9838 10.3988 90.9838 10.3988 90.9838 10.3988L91.3971 10.1174L93.5393 14.3155ZM93.5393 14.3155C93.7568 14.6344 93.985 14.945 94.2072 15.2475C94.2251 15.2719 94.2431 15.2964 94.261 15.3207C94.502 15.649 94.7354 15.969 94.9534 16.2969L94.9539 16.2977M93.5393 14.3155L94.9539 16.2977M94.9539 16.2977C95.5588 17.2041 95.8617 18.1873 95.8007 19.265M94.9539 16.2977L95.8007 19.265M88.2245 26.4001L88.2252 26.3996C89.1399 25.8098 89.991 25.1476 90.8623 24.4698C91.1573 24.2403 91.4545 24.009 91.7574 23.7781C91.9354 23.6416 92.1068 23.5002 92.286 23.3523C92.3455 23.3032 92.4057 23.2535 92.4674 23.203C92.7098 23.0045 92.9671 22.7997 93.2433 22.6134M88.2245 26.4001L93.5233 23.0277M88.2245 26.4001C88.0255 26.529 87.848 26.6852 87.7021 26.8136C87.6851 26.8286 87.6686 26.8432 87.6525 26.8573C87.4861 27.003 87.353 27.1128 87.21 27.1917M88.2245 26.4001L88.4962 26.8198C88.3301 26.9273 88.181 27.0584 88.0316 27.1898C87.8491 27.3502 87.6662 27.511 87.4516 27.6295M93.2433 22.6134C93.2434 22.6133 93.2436 22.6132 93.2437 22.6131L93.5233 23.0277M93.2433 22.6134C93.2432 22.6135 93.2432 22.6135 93.2431 22.6136L93.5233 23.0277M93.2433 22.6134C94.1083 22.0283 94.7967 21.2787 95.3501 20.3847M93.5233 23.0277C94.4533 22.3986 95.1892 21.5947 95.7756 20.6472M95.3501 20.3847L95.7756 20.6472M95.3501 20.3847C95.6053 19.971 95.7795 19.6327 95.8007 19.265M95.3501 20.3847C95.3502 20.3845 95.3503 20.3843 95.3504 20.3841L95.7756 20.6472M95.7756 20.6472L95.8007 19.265M87.4516 27.6295L87.21 27.1917M87.4516 27.6295C87.4097 27.6526 87.3679 27.6763 87.326 27.6999C87.1992 27.7715 87.0718 27.8434 86.939 27.9033L87.21 27.1917M87.4516 27.6295L87.2099 27.1918C87.2099 27.1918 87.21 27.1918 87.21 27.1917M86.8851 27.3726C86.7904 26.0461 86.2283 24.9288 85.5013 23.9247L85.5012 23.9246C84.6314 22.724 83.5005 21.878 82.2093 21.2465L82.2091 21.2465C81.4886 20.8944 80.728 20.7916 80.0518 20.7003C80.0015 20.6935 79.9516 20.6867 79.9023 20.68L79.9016 20.6799C78.8089 20.5314 77.7308 20.6195 76.7049 20.7144L76.7044 20.7144C76.2691 20.7551 75.8836 20.7076 75.5355 20.5261L75.5353 20.526C75.1787 20.3404 75.0188 20.008 74.915 19.4906L74.9149 19.4902C74.8064 18.9517 74.7819 18.4136 74.7556 17.8331C74.7469 17.6422 74.738 17.4466 74.7259 17.2449C74.6698 16.2831 74.2347 15.4789 73.8568 14.7803L73.8568 14.7803L73.8561 14.7791C73.4761 14.0812 72.9955 13.4551 72.3972 12.9174C72.3977 12.9178 72.3979 12.918 72.398 12.918C72.3984 12.9176 72.3773 12.8916 72.3747 12.8249C72.3735 12.792 72.3777 12.7604 72.3855 12.7342C72.3934 12.7078 72.4026 12.6945 72.4056 12.6908L72.4059 12.6903C72.7479 12.2725 73.1478 11.9395 73.5884 11.5726C73.7445 11.4427 73.9056 11.3085 74.0711 11.1648L74.0714 11.1645C74.372 10.9031 74.6793 10.6321 74.9848 10.3626C75.2479 10.1305 75.5098 9.89959 75.7649 9.67688L86.8851 27.3726Z" stroke="black"/>
<path d="M60.763 52.5415C60.4582 52.5434 60.2174 52.3317 60.1747 52.0463C60.1378 51.8036 60.2659 51.625 60.5436 51.5337C61.2775 51.2891 61.9358 50.8852 62.6173 50.5357C64.2561 49.6988 65.8502 48.7823 67.4152 47.8173C68.8812 46.9125 70.2986 45.9339 71.718 44.9591C72.8248 44.1999 73.9335 43.4466 75.0189 42.6563C76.7509 41.3961 78.4343 40.0816 80.0168 38.637C81.042 37.7011 82.0828 36.7807 83.0031 35.7381C83.6303 35.0274 84.174 34.2527 84.7468 33.5012C84.9584 33.2255 85.2167 33.1362 85.438 33.2857C85.671 33.4449 85.7157 33.742 85.5099 34.0294C85.0322 34.6973 84.5545 35.3672 84.0419 36.0099C82.8808 37.4642 81.4944 38.6972 80.1158 39.936C78.4052 41.4719 76.5587 42.833 74.6907 44.165C73.4539 45.0485 72.186 45.8892 70.9336 46.7494C69.654 47.627 68.355 48.4775 67.0191 49.2658C65.1202 50.3862 63.1959 51.458 61.1979 52.3919C61.0504 52.4638 60.9009 52.5298 60.763 52.5415Z" fill="black"/>
<path d="M44.5847 39.1651C44.2138 39.167 44.0235 39.0311 43.975 38.7942C43.9303 38.5651 44.0623 38.3418 44.3361 38.2758C44.8468 38.1515 45.3633 38.0506 45.8798 37.9496C46.4234 37.8447 46.9419 37.6603 47.4545 37.4584C50.3573 36.3128 53.2368 35.1108 55.9804 33.6157C58.0852 32.4682 60.1279 31.2139 62.0036 29.7071C62.3065 29.4644 62.6171 29.2333 62.9472 29.0295C63.2521 28.8411 63.5297 28.8625 63.6967 29.0877C63.8695 29.3168 63.8385 29.6003 63.5608 29.8256C63.0987 30.2023 62.6191 30.5576 62.1414 30.9149C59.0658 33.2216 55.7125 35.0507 52.2058 36.6021C50.4544 37.3768 48.6777 38.103 46.8545 38.6933C46.0914 38.9418 45.2914 39.0583 44.5847 39.1651Z" fill="black"/>
<path d="M80.7488 5.29425C80.6246 5.41075 80.5061 5.53696 80.3256 5.56803C80.4401 5.43794 80.578 5.34279 80.7488 5.29425Z" fill="#7C7C7C"/>
<path d="M89.6943 9.43781C89.5487 9.29218 89.4206 9.13491 89.3623 8.93103C89.5079 9.07666 89.6438 9.23005 89.6943 9.43781Z" fill="#7C7C7C"/>
</svg>
