<svg width="880"  viewBox="0 0 880 401" fill="none" xmlns="http://www.w3.org/2000/svg">
<path d="M245.151 225.95V291.2H215.451V360.5H138.501V291.2H26.4508L0.800781 243.95L149.301 41.9H215.451V225.95H245.151ZM88.1008 226.85H144.351L145.251 145.4L88.1008 226.85Z" fill="black"/>
<g clip-path="url(#clip0_616_9200)">
<path fill-rule="evenodd" clip-rule="evenodd" d="M581.923 176.976L478.034 264.151L374.145 351.326C367.809 356.648 359.722 358.069 351.954 355.238C344.175 352.406 338.909 346.126 337.465 337.972L313.92 204.411L290.363 70.8611C288.931 62.7077 291.729 55.0061 298.076 49.6844C304.411 44.3627 312.498 42.9413 320.266 45.773L447.701 92.159L575.136 138.545C582.915 141.377 588.182 147.657 589.625 155.81C591.068 163.953 588.27 171.654 581.923 176.976Z" fill="black"/>
<path d="M347.227 172.614C347.227 170.961 346.379 169.98 344.671 169.705C344.131 169.617 343.206 169.573 341.883 169.573H338.479V175.566H342.005C343.889 175.566 345.2 175.346 345.949 174.905C346.809 174.41 347.227 173.638 347.227 172.614ZM346.114 161.111C346.114 159.811 345.541 158.94 344.374 158.533C343.966 158.389 342.423 158.323 341.729 158.323H338.49V163.931H341.729C342.996 163.931 344.891 163.623 345.453 162.984C345.894 162.477 346.114 161.86 346.114 161.111ZM353.574 173.098C353.574 175.236 352.968 176.977 351.767 178.31C350.015 180.249 347.359 181.219 343.779 181.219H331.912V152.671H344.352C349.717 152.671 352.395 155.15 352.395 160.119C352.395 161.607 352.097 162.852 351.513 163.865C351.028 164.714 349.75 165.683 348.737 166.278C350.698 166.752 351.634 167.424 352.45 168.779C353.21 170.002 353.574 171.457 353.574 173.098Z" fill="white"/>
<path d="M387.94 181.219H368.758V152.671H387.94V158.83H375.281V163.755H387.378V169.914H375.281V175.06H387.94V181.219Z" fill="white"/>
<path d="M476.107 167.038C476.107 165.022 475.468 163.281 474.178 161.816C472.526 159.943 470.476 159.006 468.008 159.006C466.301 159.006 464.758 159.48 463.381 160.439C462.003 161.397 461.023 162.675 460.428 164.273C460.097 165.187 459.932 166.102 459.932 167.038C459.932 168.967 460.571 170.696 461.86 172.228C463.447 174.123 465.496 175.06 468.019 175.06C470.531 175.06 472.581 174.123 474.189 172.25C475.468 170.741 476.107 169.011 476.107 167.038ZM483.819 167.038C483.819 170.917 482.53 174.321 479.952 177.252C477.01 180.58 473.033 182.254 468.019 182.254C463.006 182.254 459.04 180.58 456.098 177.252C453.52 174.332 452.23 170.928 452.23 167.038C452.23 165.265 452.583 163.458 453.277 161.596C453.971 159.734 454.908 158.136 456.076 156.814C459.018 153.486 462.995 151.812 468.019 151.812C473.033 151.812 477.021 153.486 479.952 156.814C482.519 159.734 483.819 163.149 483.819 167.038Z" fill="white"/>
<path d="M506.406 152.671H499.002V181.219H506.406V152.671Z" fill="white"/>
<path d="M548.086 181.219H541.189L528.485 163.733V181.219H521.588V152.671H528.485L541.189 170.135V152.671H548.086V181.219Z" fill="white"/>
<path d="M411.817 181.428C410.715 181.792 410.021 181.34 409.745 180.084L409.811 154.059C409.999 152.935 410.627 152.506 411.728 152.814L434.536 165.826C435.561 166.719 435.561 167.545 434.679 168.317L411.817 181.428ZM414.042 188.314L439.67 173.396C443.714 170.179 444.055 164.504 438.282 160.395C429.016 155.029 420.884 150.324 411.618 144.969C407.233 143.328 403.366 146.413 403.211 150.027L403.123 183.213C403.002 188.028 407.872 191.532 414.042 188.314Z" fill="white"/>
<path d="M414.79 174.982C414.195 175.191 413.821 174.927 413.677 174.222L413.711 159.414C413.81 158.775 414.151 158.532 414.746 158.708L427.053 166.113C427.604 166.619 427.604 167.093 427.131 167.523L414.79 174.982ZM413.644 177.615L429.973 167.732C430.612 167.148 430.612 166.531 429.874 165.859L413.589 156.064C412.807 155.833 412.355 156.163 412.223 157.001L412.168 176.602C412.366 177.549 412.851 177.891 413.644 177.615Z" fill="white"/>
<path d="M416.124 171.897L423.936 167.269C424.244 166.994 424.244 166.707 423.892 166.388L416.102 161.804C415.727 161.694 415.507 161.848 415.452 162.245L415.43 171.423C415.507 171.875 415.749 172.029 416.124 171.897Z" fill="white"/>
<path d="M361.166 214.482C361.144 220.652 366.102 223.704 370.774 223.704C372.68 223.704 374.498 223.263 376.018 222.514V219.594C374.828 220.498 373.154 220.993 371.292 220.993C367.832 220.993 364.163 218.922 364.163 214.482C364.185 209.7 367.777 207.662 371.237 207.662C372.944 207.662 374.619 208.124 375.886 209.006V206.141C374.333 205.37 372.559 204.951 370.741 204.951C366.003 204.951 361.166 208.058 361.166 214.482Z" fill="white"/>
<path d="M401.282 214.415C401.282 217.875 399.167 221.026 394.77 221.026C390.407 221.026 388.259 217.875 388.259 214.415C388.259 210.956 390.407 207.805 394.77 207.805C399.167 207.794 401.282 210.945 401.282 214.415ZM385.262 214.415C385.262 219.197 388.391 223.792 394.77 223.792C401.128 223.792 404.279 219.197 404.279 214.415C404.279 209.634 401.128 205.039 394.77 205.039C388.391 205.039 385.262 209.634 385.262 214.415Z" fill="white"/>
<path d="M413.512 205.37V223.451H416.465V216.113H425.246V213.38H416.465V208.081H425.995V205.37H413.512Z" fill="white"/>
<path d="M435.24 205.37V223.451H438.182V216.113H446.963V213.38H438.182V208.081H447.713V205.37H435.24Z" fill="white"/>
<path d="M456.957 205.37V223.451H469.562V220.762H459.899V215.683H468.625V212.995H459.899V208.059H469.407V205.37H456.957Z" fill="white"/>
<path d="M478.805 205.37V223.451H491.409V220.762H481.747V215.683H490.473V212.995H481.747V208.059H491.255V205.37H478.805Z" fill="white"/>
</g>
<path d="M865.151 225.95V291.2H835.451V360.5H758.501V291.2H646.451L620.801 243.95L769.301 41.9H835.451V225.95H865.151ZM708.101 226.85H764.351L765.251 145.4L708.101 226.85Z" fill="black"/>
<defs>
<clipPath id="clip0_616_9200">
<rect width="300" height="312.318" fill="white" transform="translate(290 44.3408)"/>
</clipPath>
</defs>
</svg>
