<svg width="125" height="43" viewBox="0 0 125 43" fill="none" xmlns="http://www.w3.org/2000/svg">
<path d="M40.7991 13.4043C40.7991 10.3491 40.7925 7.29395 40.7991 4.23877C40.8056 2.13424 42.4578 0.619766 44.5492 0.482086C46.0506 0.377187 47.0537 1.21638 48.1551 1.89166C51.007 3.63561 53.8262 5.432 56.6453 7.22183C58.1795 8.19215 59.6612 9.24769 61.2347 10.1393C63.4113 11.3784 63.5162 15.2794 60.8216 16.8266C57.478 18.7541 54.2458 20.8652 50.9677 22.9108C49.427 23.8745 47.9125 24.871 46.3784 25.8348C44.8704 26.7854 42.3791 26.1233 41.435 24.4318C41.0744 23.7893 40.8318 22.9894 40.8187 22.2551C40.7532 19.3114 40.7991 16.3546 40.7991 13.4043ZM44.9295 22.006C49.5778 19.0819 54.1409 16.2103 58.7499 13.3125C54.1343 10.4081 49.5909 7.5562 44.9295 4.62559C44.9295 10.5327 44.9295 16.1972 44.9295 22.006Z" fill="correct"/>
<path d="M121.158 15.8826C121.158 12.906 121.184 9.92299 121.138 6.94649C121.125 6.19908 121.368 6.0024 122.076 6.04174C123.033 6.09419 123.997 6.05485 125 6.05485C125 11.503 125 16.8791 125 22.3601C123.571 22.3601 122.168 22.3732 120.771 22.3404C120.627 22.3404 120.456 22.1109 120.358 21.9536C118.529 19.0361 116.706 16.112 114.884 13.188C114.694 12.8798 114.503 12.5782 114.215 12.1259C114.215 15.6203 114.215 18.9377 114.215 22.3142C112.95 22.3142 111.684 22.3142 110.36 22.3142C110.36 16.9184 110.36 11.5293 110.36 6.06796C111.789 6.06796 113.192 6.04829 114.602 6.09419C114.812 6.10074 115.074 6.38921 115.205 6.60557C116.274 8.31673 117.316 10.0541 118.378 11.7653C119.244 13.1617 120.135 14.5451 121.02 15.9284C121.066 15.9153 121.112 15.8957 121.158 15.8826Z" fill="correct"/>
<path d="M78.1299 22.76C74.8912 22.7534 72.295 21.5405 70.5313 18.7869C69.1873 16.6889 68.9775 14.3681 69.5086 11.9947C70.0724 9.4706 71.5476 7.60209 73.9471 6.54654C77.4219 5.01896 80.759 5.27465 83.8928 7.4513C85.3549 8.4675 86.2006 9.90986 86.7382 11.6014C87.4856 13.9419 87.1578 16.1907 86.1088 18.2887C84.8894 20.7341 82.7652 22.124 80.0706 22.5895C79.4346 22.6944 78.779 22.7075 78.1299 22.76ZM82.6209 13.9681C82.7783 11.8374 81.1655 9.77218 78.8642 9.39192C77.1531 9.11001 74.8125 9.96887 74.1241 12.0996C73.7832 13.1552 73.58 14.1714 73.816 15.3187C74.4716 18.4788 77.4809 19.7966 80.0968 18.5443C81.9325 17.6658 82.6537 16.0792 82.6209 13.9681Z" fill="correct"/>
<path d="M9.80148 13.7583C12.7583 15.0106 13.1189 16.9381 12.3518 19.3835C11.8011 21.1471 10.0703 22.065 8.28045 22.183C5.55308 22.3535 2.80604 22.2224 0 22.2224C0 16.9381 0 11.5489 0 6.06138C0.288472 6.06138 0.590056 6.06138 0.898196 6.06138C2.88472 6.06138 4.88435 5.94993 6.86431 6.10072C8.0182 6.18595 9.23765 6.5072 10.2539 7.04481C12.601 8.28393 12.7977 12.0078 10.2604 13.4567C10.1227 13.5289 10.0047 13.6207 9.80148 13.7583ZM3.80914 18.9049C4.90402 18.9049 5.92022 18.9508 6.93643 18.8918C7.86741 18.8328 8.64759 18.033 8.58203 17.2265C8.51647 16.4529 8.14932 15.7514 7.04133 15.7055C5.97923 15.6662 4.91713 15.6137 3.80914 15.5678C3.80914 16.7217 3.80914 17.7576 3.80914 18.9049ZM3.80258 12.4209C4.91057 12.3684 5.95301 12.375 6.98232 12.2504C7.71662 12.1586 7.9133 11.5817 7.9592 10.8802C8.01164 10.1197 7.59205 9.68039 6.99544 9.57549C5.96612 9.39192 4.90402 9.38536 3.80258 9.30013C3.80258 10.3885 3.80258 11.3194 3.80258 12.4209Z" fill="correct"/>
<path d="M21.832 22.301C21.8189 22.0584 21.7927 21.8355 21.7927 21.6061C21.7927 16.6955 21.8058 11.7849 21.7796 6.87435C21.773 6.21218 21.9828 6.04172 22.6253 6.04828C25.7919 6.08106 28.9586 6.08106 32.1252 6.04828C32.8398 6.04172 33.0365 6.27119 32.9906 6.94647C32.9382 7.77255 32.9775 8.60518 32.9775 9.50338C30.5714 9.50338 28.2243 9.50338 25.8182 9.50338C25.8182 10.4671 25.8182 11.3653 25.8182 12.3422C27.9752 12.3422 30.1387 12.3422 32.3743 12.3422C32.3743 13.4699 32.3743 14.5254 32.3743 15.6858C30.237 15.6858 28.0604 15.6858 25.8182 15.6858C25.8182 16.7479 25.8182 17.6986 25.8182 18.741C28.3095 18.741 30.8074 18.741 33.3578 18.741C33.3578 19.967 33.3578 21.1078 33.3578 22.3076C29.529 22.301 25.7002 22.301 21.832 22.301Z" fill="correct"/>
<path d="M96.1987 22.3666C96.1855 22.0388 96.1593 21.7897 96.1593 21.534C96.1593 16.6759 96.1724 11.8112 96.1397 6.95307C96.1331 6.19911 96.3757 6.00898 97.0772 6.04832C97.9885 6.10077 98.9129 6.07455 99.8242 6.05488C100.257 6.04177 100.427 6.186 100.427 6.63838C100.414 11.6801 100.421 16.7283 100.421 21.77C100.421 22.1372 100.349 22.3797 99.9095 22.3732C98.6966 22.3601 97.4706 22.3666 96.1987 22.3666Z" fill="correct"/>
<path d="M43.6445 42.4678C40.2484 42.9399 37.8619 39.8191 37.9472 37.0196C38.0455 33.6563 40.2549 31.4928 43.6707 31.5125C47.2373 31.5321 49.2959 33.7088 49.4008 37.0262C49.4926 39.7995 47.1782 42.9071 43.6445 42.4678ZM43.6969 41.0517C45.9522 41.1763 47.5388 39.3733 47.4929 37.059C47.4471 34.5742 46.0309 33.0138 43.7166 33.0335C41.3564 33.0597 39.9402 34.5808 39.8812 37.0721C39.8222 39.2881 41.5531 41.2418 43.6969 41.0517Z" fill="correct"/>
<path d="M88.2067 31.7944C88.2198 32.0763 88.2133 32.332 88.246 32.5877C88.3116 33.145 88.0559 33.3089 87.5183 33.2958C86.03 33.2696 84.5418 33.2892 83.0077 33.2892C83.0077 34.2137 83.0077 35.066 83.0077 36.0035C84.5746 36.0035 86.1546 36.0035 87.7871 36.0035C87.7871 36.5673 87.7871 37.0459 87.7871 37.5835C86.2071 37.5835 84.6467 37.5835 83.0208 37.5835C83.0208 38.6915 83.0208 39.7471 83.0208 40.8813C84.804 40.8813 86.5939 40.8813 88.4362 40.8813C88.4362 41.3861 88.4362 41.8123 88.4362 42.2843C86.0432 42.2843 83.6764 42.2843 81.2703 42.2843C81.2703 38.7833 81.2703 35.3151 81.2703 31.801C83.578 31.7944 85.8596 31.7944 88.2067 31.7944Z" fill="correct"/>
<path d="M96.3627 33.2498C96.3627 34.2464 96.3627 35.0987 96.3627 36.0296C97.9427 36.0296 99.5031 36.0296 101.103 36.0296C101.103 36.5672 101.103 37.0262 101.103 37.5769C99.5162 37.5769 97.9362 37.5769 96.3233 37.5769C96.3233 38.7177 96.3233 39.7732 96.3233 40.8878C98.1263 40.8878 99.9227 40.8878 101.772 40.8878C101.772 41.3795 101.772 41.8056 101.772 42.3236C100.565 42.3236 99.3654 42.3236 98.1722 42.3236C96.9986 42.3236 95.8251 42.3236 94.6122 42.3236C94.6122 38.7898 94.6122 35.3216 94.6122 31.8009C96.8872 31.8009 99.1491 31.8009 101.47 31.8009C101.47 32.2467 101.47 32.7057 101.47 33.2498C99.785 33.2498 98.1001 33.2498 96.3627 33.2498Z" fill="correct"/>
<path d="M32.8333 33.2367C32.4072 33.5908 32.0138 33.9186 31.6204 34.2464C29.7913 32.5746 27.654 32.5746 26.1198 34.2595C24.7692 35.7478 24.8217 38.7439 26.2968 40.0814C27.8048 41.4451 30.0535 41.727 31.6794 39.688C32.1581 39.9896 32.6432 40.2977 33.1349 40.6059C31.3648 43.3333 26.2247 42.9333 24.5726 40.8026C22.5664 38.2129 22.868 34.7381 25.1364 32.7713C27.3458 30.8569 31.7975 31.2699 32.8333 33.2367Z" fill="correct"/>
<path d="M68.3875 31.7878C70.6559 31.7878 72.8915 31.7878 75.1731 31.7878C75.1731 32.2861 75.1731 32.7385 75.1731 33.2761C73.5275 33.2761 71.9147 33.2761 70.2494 33.2761C70.2494 34.2595 70.2494 35.1643 70.2494 36.1477C71.7114 36.1477 73.1866 36.1477 74.7273 36.1477C74.7273 36.705 74.7273 37.1836 74.7273 37.7408C73.2587 37.7408 71.7835 37.7408 70.2166 37.7408C70.2166 39.2881 70.2166 40.7632 70.2166 42.2777C69.5676 42.2777 69.0037 42.2777 68.3875 42.2777C68.3875 38.7898 68.3875 35.3085 68.3875 31.7878Z" fill="correct"/>
<path d="M55.6422 31.7878C57.8582 31.7878 60.0414 31.7878 62.2705 31.7878C62.2705 32.2861 62.2705 32.7385 62.2705 33.2826C60.6249 33.2826 59.0121 33.2826 57.3468 33.2826C57.3468 34.2661 57.3468 35.1708 57.3468 36.1543C58.8678 36.1543 60.402 36.1543 61.9886 36.1543C61.9886 36.705 61.9886 37.1836 61.9886 37.7408C60.4676 37.7408 58.9334 37.7408 57.314 37.7408C57.314 39.2881 57.314 40.7567 57.314 42.2777C56.7174 42.2777 56.206 42.2777 55.6422 42.2777C55.6422 38.7898 55.6422 35.3085 55.6422 31.7878Z" fill="correct"/>
<path d="M45.8145 13.2863C45.8145 11.6144 45.808 9.94261 45.8145 8.27078C45.8211 7.22835 46.4702 6.84154 47.3552 7.39225C50.0629 9.07719 52.7575 10.7752 55.4456 12.4864C56.2126 12.9716 56.2257 13.6272 55.4587 14.1189C53.0394 15.6661 50.594 17.1741 48.1617 18.7017C47.8994 18.8656 47.6699 19.1016 47.388 19.2196C47.0733 19.3573 46.621 19.5671 46.4177 19.4425C46.1292 19.2589 45.8539 18.8066 45.8408 18.4591C45.7883 16.7348 45.8145 15.0105 45.8145 13.2863ZM54.5211 13.319C52.0298 11.7521 49.5712 10.2114 47.0405 8.62481C47.0405 11.8308 47.0405 14.8794 47.0405 18.0329C49.5712 16.4332 52.0036 14.8991 54.5211 13.319Z" fill="correct"/>
<path d="M47.847 13.365C47.847 12.7094 47.8405 12.0603 47.847 11.4047C47.8601 10.7425 48.306 10.4541 48.8567 10.7753C49.8663 11.3654 50.8629 11.962 51.8397 12.6045C52.4167 12.9847 52.4036 13.6469 51.8266 14.0206C50.8694 14.6434 49.8991 15.2466 48.9157 15.817C48.3191 16.1645 47.8601 15.8629 47.847 15.1614C47.8405 14.5648 47.847 13.9616 47.847 13.365Z" fill="correct"/>
</svg>
