<svg width="30" height="31" viewBox="0 0 30 31" fill="none" xmlns="http://www.w3.org/2000/svg">
<path d="M9.11149 6.6661C13.0298 6.32549 16.9703 6.32549 20.8886 6.6661L22.7764 6.8302C24.0331 6.93945 25.1094 7.68903 25.6671 8.76126C25.7384 8.89843 25.685 9.0645 25.5535 9.14589L17.721 13.9945C16.0412 15.0344 13.9231 15.0563 12.2222 14.0512L4.33738 9.39199C4.20999 9.31672 4.15152 9.16177 4.20893 9.02539C4.71912 7.81343 5.86616 6.94821 7.2237 6.8302L9.11149 6.6661Z" fill="black"/>
<path d="M4.20251 11.4902C4.00756 11.375 3.7588 11.499 3.73608 11.7243C3.41891 14.8688 3.49567 18.0431 3.96637 21.1732C4.21451 22.8234 5.56127 24.0884 7.2237 24.233L9.11149 24.3971C13.0298 24.7377 16.9703 24.7377 20.8886 24.3971L22.7764 24.233C24.4388 24.0884 25.7855 22.8234 26.0337 21.1732C26.5181 17.9519 26.5853 14.6838 26.2352 11.4494C26.2107 11.2225 25.9577 11.1008 25.7637 11.221L18.708 15.5888C16.4352 16.9957 13.5695 17.0252 11.2683 15.6654L4.20251 11.4902Z" fill="black"/>
</svg>
