<svg width="18" height="18" viewBox="0 0 18 18" fill="none" xmlns="http://www.w3.org/2000/svg">
<path d="M1.50017 7.36053C3.41657 11.5344 6.82657 14.8529 11.0661 16.6519L11.7457 16.9547C13.3005 17.6475 15.1283 17.1212 16.0766 15.7077L16.9647 14.384C17.2534 13.9536 17.1655 13.3739 16.7622 13.0485L13.7503 10.6187C13.3079 10.2618 12.6574 10.345 12.319 10.8016L11.3873 12.0589C8.99646 10.8795 7.05541 8.93849 5.87607 6.54768L7.13332 5.61596C7.58998 5.27754 7.67311 4.62702 7.31622 4.18464L4.88635 1.1727C4.561 0.769416 3.9815 0.681449 3.55113 0.970018L2.21829 1.86372C0.795947 2.81742 0.272566 4.66027 0.981298 6.21922L1.49939 7.35884L1.50017 7.36053Z" fill="current"/>
</svg>
