<svg width="350"  viewBox="0 0 350 531" fill="none" xmlns="http://www.w3.org/2000/svg">
<path d="M325.06 349.955C327.519 345.805 329.386 342.292 331.559 339.021C341.725 323.762 337.092 301.191 319.703 294.472C316.695 293.309 314.324 290.498 310.723 287.732C344.206 262.878 347.982 232.03 334.15 196.615C358.345 179.533 355.513 150.837 320.999 140.342C322.14 137.312 323.172 134.304 324.358 131.362C332.218 111.997 332.877 91.8637 327.388 72.2132C317.486 36.6446 281.719 10.8465 249.444 12.7566C240.772 13.2616 232.999 15.8963 225.644 20.1338C222.526 21.9342 219.518 23.9541 215.544 26.4571C206.565 10.5171 193.962 0.0661522 175.475 0.0002846C156.483 -0.065583 144.671 11.3076 136.042 28.1258C118.895 12.7347 100.101 4.34755 78.0788 14.8644C55.7057 25.5569 50.3924 45.2953 53.2906 68.6343C49.097 69.3369 45.9134 69.7541 42.7957 70.3908C28.5244 73.311 12.9577 86.1551 17.3049 107.408C18.0295 110.899 17.8319 114.588 18.0734 118.54C6.54657 122.778 3.29709 131.406 4.50464 142.318C6.04156 156.172 15.3509 163.001 27.3168 166.645C28.5683 174.308 28.217 182.168 31.3567 188.228C34.2549 193.871 40.8636 197.603 46.5062 202.763C42.4005 226.585 38.0313 252.01 33.4644 278.554C30.8737 279.85 27.207 281.431 23.7599 283.429C15.5045 288.193 10.6743 295.351 11.2671 304.967C11.794 313.662 13.4187 322.291 14.5824 330.941C14.9117 333.444 15.3289 335.925 15.8339 339.284C-6.34155 354.697 -2.54318 373.118 10.8499 391.517C4.92181 411.936 0.728241 419.27 26.4386 434.814C26.4386 439.14 26.4605 443.838 26.4386 448.537C26.3508 462.896 30.4126 468.319 44.157 472.052C45.5621 472.425 46.9673 472.776 48.8116 473.281C49.3825 475.235 50.612 477.299 50.4803 479.275C49.2946 498.245 64.6198 508.762 82.5358 503.69C86.7733 504.7 89.3641 507.181 90.7693 511.506C96.8511 530.322 120.629 534.384 133.561 525.865C144.978 518.357 154.156 517.632 166.561 524.394C182.128 532.891 204.413 525.229 215.237 510.584C217.191 507.949 219.057 505.227 221.187 502.746C222.351 501.407 223.976 500.462 224.766 499.826C234.185 500.945 242.814 502.636 251.464 502.812C266.855 503.141 274.891 496.576 279.063 481.712C278.558 477.804 278.031 473.896 277.372 469C302.534 465.333 322.689 455.782 327.673 427.218C326.18 422.365 324.49 416.833 322.645 410.817C324.446 406.206 328.354 403.549 333.469 401.661C351.825 394.877 350.924 370.659 339.99 361.767C335.511 358.145 330.923 354.588 325.06 349.955ZM275.813 217.429C265.714 225.026 263.43 236.882 261.63 248.958C260.817 254.381 260.049 259.804 258.951 265.161C256.58 276.908 249.862 285.383 239.52 291.201C226.039 274.58 222.131 271.968 204.303 265.864C199.297 264.151 194.643 261.407 190.229 259.321C190.229 255.215 190.229 252.493 190.229 249.156C172.291 245.643 155.166 247.992 139.16 252.251C133.078 246.828 135.098 242.108 137.491 237.365C142.409 227.595 147.613 217.934 152.202 207.988C156.483 198.701 160.369 189.216 163.904 179.621C165.2 176.108 168.098 171.915 163.948 167.633C162.785 168.929 161.818 169.609 161.401 170.532C151.433 192.004 141.904 213.675 131.432 234.906C127.699 242.459 126.272 249.112 131.014 255.786C123.769 268.982 112.813 276.117 99.5955 281.804C86.927 271.199 74.6537 260.946 61.1508 249.661C60.3384 239.605 58.3405 228.737 58.9113 218C59.5041 206.803 62.7097 195.737 64.4881 184.583C66.2446 173.496 67.6278 162.342 69.2306 150.837C82.953 146.731 92.5038 137.993 100.606 126.883C120.871 133.821 136.877 127.454 149.677 111.931C169.13 126.642 186.607 123.063 203.183 107.826C214.117 123.524 228.411 128.288 245.404 123.831C246.392 124.907 247.095 125.346 247.337 125.983C253.682 142.801 261.564 158.719 272.081 173.408C277.482 180.961 280.292 189.699 278.712 199.316C277.767 204.739 276.955 210.14 275.813 217.429ZM309.713 276.03C308.11 273.768 306.288 272.253 305.827 270.387C302.116 255.984 297.923 241.647 295.332 227.046C293.005 213.916 308.067 199.887 322.008 200.875C340.408 218.681 334.172 260.309 309.713 276.03ZM156.549 279.433C169.591 280.289 183.774 290.916 188.605 302.333C175.234 315.814 151.214 314.935 138.962 299.5C144.934 292.672 151.082 285.668 156.549 279.433Z" fill="black"/>
<path d="M101.289 199.931C103.353 206.869 105.329 211.853 112.947 210.404C117.602 206.935 120.149 202.5 117.953 196.484C116.57 192.685 114.287 191.763 106.383 191.324C104.868 193.915 103.089 196.923 101.289 199.931Z" fill="black"/>
<path d="M208.981 210.557C215.194 201.687 215.282 200.348 210.276 191.939C202.196 191.192 198.683 193.432 198.047 199.733C197.432 205.859 200.352 208.889 208.981 210.557Z" fill="black"/>
<path d="M324.533 225.532C318.759 220.043 311.689 221.096 304.817 221.997C299.701 230.867 301.985 242.657 310.701 251.835C314.477 243.25 306.156 235.741 309.274 226.783C314.302 227.486 319.176 228.144 324.05 228.825C324.226 227.727 324.38 226.629 324.533 225.532Z" fill="black"/>
<path d="M147 297.5L155.5 293.5L160 292L164.5 291H169L173 292.5L182 297.5V304L174 299.5L169 297.5H163.5H160L155.5 299.5L147 304V297.5Z" fill="black"/>
</svg>
